inDegrees=no
num_controls=7
num_derivatives=13
num_iterations=146
num_multipliers=7
num_parameters=0
num_slacks=7
num_states=26
objective=5.412390
objective_accelerations=0.365130
objective_balance=0.046579
objective_effort=0.362690
objective_height=4.565534
objective_ligament=0.072458
solver_duration=1454.323139
status=Solve_Succeeded
success=true
DataType=double
version=3
OpenSimVersion=4.4-2022-07-23-0e9fedc
endheader
time	/jointset/ground_pelvis/pelvis_tilt/value	/jointset/ground_pelvis/pelvis_tx/value	/jointset/ground_pelvis/pelvis_ty/value	/jointset/hip_l/hip_flexion_l/value	/jointset/hip_l/hip_adduction_l/value	/jointset/hip_l/hip_rotation_l/value	/jointset/back/lumbar_extension/value	/jointset/patellofemoral_l/patellar_flexion_l/value	/jointset/knee_l/knee_flexion_l/value	/jointset/knee_l/knee_adduction_l/value	/jointset/knee_l/knee_rotation_l/value	/jointset/ankle_l/ankle_angle_l/value	/jointset/subtalar_l/subtalar_angle_l/value	/jointset/ground_pelvis/pelvis_tilt/speed	/jointset/ground_pelvis/pelvis_tx/speed	/jointset/ground_pelvis/pelvis_ty/speed	/jointset/hip_l/hip_flexion_l/speed	/jointset/hip_l/hip_adduction_l/speed	/jointset/hip_l/hip_rotation_l/speed	/jointset/back/lumbar_extension/speed	/jointset/patellofemoral_l/patellar_flexion_l/speed	/jointset/knee_l/knee_flexion_l/speed	/jointset/knee_l/knee_adduction_l/speed	/jointset/knee_l/knee_rotation_l/speed	/jointset/ankle_l/ankle_angle_l/speed	/jointset/subtalar_l/subtalar_angle_l/speed	/forceset/tau_hip_flexion_l	/forceset/tau_hip_adduction_l	/forceset/tau_hip_rotation_l	/forceset/tau_knee_flexion_l	/forceset/tau_ankle_angle_l	/forceset/tau_subtalar_angle_l	/forceset/tau_lumbar_extension	lambda_cid13_p0	lambda_cid13_p1	lambda_cid13_p2	lambda_cid13_p3	lambda_cid13_p4	lambda_cid13_p5	lambda_cid14_p0	/jointset/ground_pelvis/pelvis_tilt/accel	/jointset/ground_pelvis/pelvis_tx/accel	/jointset/ground_pelvis/pelvis_ty/accel	/jointset/hip_l/hip_flexion_l/accel	/jointset/hip_l/hip_adduction_l/accel	/jointset/hip_l/hip_rotation_l/accel	/jointset/back/lumbar_extension/accel	/jointset/patellofemoral_l/patellar_flexion_l/accel	/jointset/knee_l/knee_flexion_l/accel	/jointset/knee_l/knee_adduction_l/accel	/jointset/knee_l/knee_rotation_l/accel	/jointset/ankle_l/ankle_angle_l/accel	/jointset/subtalar_l/subtalar_angle_l/accel	gamma_cid13_p0	gamma_cid13_p1	gamma_cid13_p2	gamma_cid13_p3	gamma_cid13_p4	gamma_cid13_p5	gamma_cid14_p0
0	-0.03682271670617409	0.05667758312997195	0.9203415904134327	0.3085811930696054	-0.2956404695164006	-0.3016072367593507	-0.3879500408040475	0.2499276582270906	0.249927658227084	-0.174532921122586	-0.1745329251994329	-0.0008036543073733089	0.0004376101014343692	0	0	0	0	0	0	0	0	0	0	0	0	0	0.06062419581871533	-0.05408006733211312	-0.02300690604250221	-0.2692135292370916	0.2561229501318409	-0.01755374112869973	0.024365826782619	38.23926528795599	-1.171761234200586	2.131131624886695	-20.9519816170343	-641.5848673177605	-75.65569761927041	-23.19700132092474	0.3140040008132538	-1.013823593022389	-0.5901284892779477	5.63386203515015	-0.7332808240839237	2.804194934987155	-6.317469864455468	7.969045977357252	7.969045977357159	1.052112092081085	-0.05322261903983526	2.504002694887267	0.07174268263025882	-1.089758367623436e-08	1.025298229272052e-07	6.1021620396022e-08	3.063089719284381e-09	4.962509495022902e-08	-2.42840817137926e-08	7.012562623070697e-10
0.01	-0.03680484276865713	0.05662774427840147	0.9203128213049762	0.3088546525787318	-0.2956770637611533	-0.3014663871457846	-0.3882638848600777	0.2503180438211246	0.250318043821159	-0.1744830753849169	-0.1745324929218374	-0.0006808860256138959	0.0004404200419739989	0.003580452846300103	-0.009895073501311025	-0.005728065647391139	0.05438370126909098	-0.007274483570587382	0.02802669796499143	-0.062338678621382	0.07771615422771437	0.07771615422771329	0.00993389033935249	8.225831657681669e-05	0.02447852988390137	0.0005832716720029354	0.0549428325063898	-0.06803399263923304	-0.02199519674573048	-0.2631814533043694	0.243227094864661	0.0001906882863462405	0.02937251877977733	34.6589277242814	-8.161736792285957	3.143249536511734	-20.03694970367536	-643.8744171445468	-89.96954510338627	-23.20148795846924	0.3809100204297935	-0.9664440927811827	-0.5602722708902669	5.294389157155623	-0.7179045193125758	2.780420018639761	-6.12754697432669	7.618755317926208	7.61875531792608	0.9587638572477342	0.03816586349621262	2.408510748904975	0.05478868532972769	-2.984087718212421e-08	1.038875109751317e-07	1.097287166689212e-07	2.168250167747674e-08	-2.463671178170858e-08	-6.011338034351448e-08	-4.042547690487722e-09
0.02	-0.03675099548387506	0.0564811357189999	0.9202275462063612	0.3096627020974188	-0.295785077320768	-0.3010495679942916	-0.3891882117249918	0.2514747619919612	0.2514747619919672	-0.1743349434733439	-0.1745313895272699	-0.0003155859222623424	0.0004496965544025792	0.007194669448140912	-0.01935394156621846	-0.01130119803171405	0.1069180019128503	-0.01428386297184603	0.05519390758535452	-0.1220965617767323	0.1532665153533368	0.1532665153533355	0.01965723477412178	0.0001331488927190254	0.04850636431834207	0.001293314377781907	0.04926146919394604	-0.08198791794631155	-0.02098348744931712	-0.257149377371639	0.230331239597489	0.01793511770144231	0.03437921077682882	31.13956078967933	-15.16352861815031	4.158554993584614	-19.28489876483748	-645.2980621259259	-104.2079920352944	-23.2146926094396	0.32075675192078	-0.9265825057411817	-0.5591418366643113	5.263981910083798	-0.6802599902183416	2.632297266060712	-5.801310771249511	7.535887356938899	7.53588735693899	1.0100029111642	-0.05949616712756955	2.413863604995635	0.09709688938548051	-4.878417068801406e-08	1.052451990230582e-07	1.584358129418205e-07	4.030191363566909e-08	-9.889851851364617e-08	-9.594267897323638e-08	-8.786351643282515e-09
0.03	-0.03666101713910432	0.05624211894296614	0.9200871533968534	0.3109872533340595	-0.2959618357446367	-0.3003655982732616	-0.3906975139379101	0.2533764530604866	0.2533764530605001	-0.1740906860120381	-0.1745301997101402	0.0002877932821058493	0.0004667448939278807	0.01080263809109674	-0.02837644962244457	-0.01676494014784941	0.1576995941585617	-0.02102746486041243	0.08147329992442236	-0.1793789417312224	0.2267244109675146	0.2267244109675111	0.02913357486450524	0.0001121132045751707	0.07209514617067359	0.002132841106284613	0.04414963266999378	-0.0732884535006379	-0.02034765478838073	-0.2525153080525238	0.226572878097492	0.01316033550639332	0.03894403525462962	29.68312251579138	-12.93507480538756	3.917783182969147	-18.6902824449939	-646.7643121037763	-98.87596358739121	-23.23610825103214	0.3810579810149375	-0.8791322159748104	-0.5381469205572581	4.9413429560845	-0.665396871122704	2.606731237430561	-5.633960747169094	7.198649332385219	7.198649332384755	0.9073826891887278	0.02771092551860986	2.320235625119254	0.07981903543081111	-6.675772162642273e-08	7.586541337259915e-08	2.129170909660689e-07	5.278982226084644e-08	-1.624958944203594e-07	-1.42857074822072e-07	-1.754831993457546e-08
0.04	-0.03653491089577344	0.05591506763428886	0.9198924918618898	0.312810839508012	-0.296204827503985	-0.2994226404249236	-0.3927680917782988	0.2560023048189055	0.2560023048189128	-0.1737534785235945	-0.1745289966107631	0.001124830334952061	0.0004926761949078968	0.01442024915521471	-0.03696084809492099	-0.02215494312286595	0.2067249893750411	-0.0275305300668761	0.1069915330475132	-0.2343516872706052	0.2980986533308118	0.2980986533308059	0.03824724020342671	0.0001358053234756345	0.0952379340137029	0.003069906668715084	0.03903779614597024	-0.0645889890548961	-0.01971182212754455	-0.2478812387333999	0.2228145165975235	0.008385553311425327	0.04350885973233518	28.28434432842664	-10.71363140276899	3.674605149284384	-18.25340917992176	-647.4217711435034	-93.4649910588446	-23.26508812640934	0.3226852361526286	-0.8389605889907921	-0.5443940084405521	4.912742504237367	-0.6321526537979215	2.480065422864717	-5.339383888228431	7.119156706762777	7.11915670676287	0.9374679608716062	-0.05055060571930944	2.324664803135656	0.1166046561710714	-8.47112778727184e-08	4.585186537784344e-08	2.675174242841596e-07	6.515130813688948e-08	-2.258733851554185e-07	-1.900000293764564e-07	-2.639313697511578e-08
0.05	-0.03637268988970702	0.05550424125197257	0.9196441705104208	0.3151162932523448	-0.2965115849402444	-0.2982288783909964	-0.3953767970453317	0.2593316670396125	0.2593316670396166	-0.1733268888837511	-0.1745278997319682	0.002190913489659142	0.0005284786332117967	0.01802912772803433	-0.04514338643327893	-0.02750634324730298	0.2540882055431628	-0.03377020712658842	0.1316244215244482	-0.2870154089361757	0.3674240354982472	0.3674240354982507	0.04701527565962656	8.836201780837278e-05	0.1178856631062426	0.004110989565382688	0.03316310115791388	-0.06310813015837854	-0.0188091563566115	-0.2423990987679032	0.2146555425540689	0.01130691785917226	0.04855411145459538	25.74072860996205	-11.58263520871236	3.865261347338388	-17.19885224736618	-648.3302497340599	-94.57406804138508	-23.30083072728661	0.3807617493277107	-0.7987310346841264	-0.5301111127258354	4.606469143316506	-0.6123087775516874	2.434394534529863	-5.173772726684208	6.786771024984479	6.786771024985754	0.8381962622178267	0.01892190923152332	2.220868822795864	0.1008838085239999	-9.596129963178366e-08	1.826307149212197e-08	3.010574264957752e-07	7.323781109571561e-08	-2.724821559655513e-07	-2.208188024208252e-07	-3.2297996799042e-08
0.06	-0.03617422558159238	0.05501342337058853	0.9193424155380507	0.3178870507524053	-0.2968792258562044	-0.296792888677417	-0.3985009208132133	0.2633437914926388	0.2633437914926417	-0.1728142739045144	-0.174527124665724	0.003480682307389229	0.0005752966409043546	0.02166890955998935	-0.05295914790847069	-0.03284166730306045	0.2997857405199459	-0.03970722600606993	0.1554370689782605	-0.337435387440335	0.4346510997957036	0.434651099795715	0.05545230808477709	7.144280101670986e-05	0.1399750666180952	0.005273020546428081	0.02728840616979761	-0.06162727126180143	-0.01790649058567698	-0.2369169588024133	0.2064965685106364	0.01422828240698804	0.05359936317677701	23.2495486627558	-12.46131267739633	4.058022800954378	-16.29631169965477	-648.5041188168626	-95.61949281939084	-23.34242997480999	0.3288658879791611	-0.7656052163571418	-0.5411787947046435	4.579606265969648	-0.5716210177518521	2.3160172182398	-4.890635255946528	6.699493132766958	6.699493132766741	0.871267354661584	-0.04444578794456454	2.212999686998644	0.1407942730466844	-1.06929067307176e-07	-9.2236274837454e-09	3.337106779239603e-07	8.114431477381682e-08	-3.183848754104241e-07	-2.509502415068775e-07	-3.807906895068973e-08
